<?xml version="1.0" standalone="no"?>
<!DOCTYPE svg PUBLIC "-//W3C//DTD SVG 20010904//EN"
 "http://www.w3.org/TR/2001/REC-SVG-20010904/DTD/svg10.dtd">
<svg version="1.0" xmlns="http://www.w3.org/2000/svg"
 width="450.000000pt" height="450.000000pt" viewBox="0 0 450.000000 450.000000"
 preserveAspectRatio="xMidYMid meet">
<metadata>
Created by potrace 1.14, written by Peter Selinger 2001-2017
</metadata>
<g transform="translate(0.000000,450.000000) scale(0.100000,-0.100000)"
fill="#000000" stroke="none">
<path d="M3026 3249 c3 -5 35 -13 104 -24 8 -1 26 -5 40 -8 38 -8 382 -78 410
-83 14 -3 32 -7 40 -9 8 -2 29 -7 47 -10 82 -14 109 -40 93 -94 -5 -17 -7 -31
-5 -31 2 0 -2 -18 -10 -40 -8 -22 -12 -40 -10 -40 3 0 0 -11 -5 -25 -11 -30
-5 -31 38 -5 17 11 32 17 32 14 0 -4 6 -2 13 4 12 10 79 45 464 243 111 57
200 105 198 108 -7 7 -1454 7 -1449 0z"/>
<path d="M2597 3033 c-1 -1 -38 -3 -81 -4 -69 -2 -113 -8 -191 -25 -163 -35
-329 -141 -422 -266 -49 -68 -60 -89 -89 -173 -25 -70 -32 -170 -19 -240 19
-95 106 -209 197 -257 157 -82 270 -102 638 -112 128 -3 175 -19 186 -61 11
-46 -5 -94 -46 -135 -39 -39 -71 -52 -160 -66 -46 -7 -1942 -13 -1971 -6 -15
3 -15 9 -3 50 10 35 104 422 139 572 2 8 22 94 45 190 23 96 44 184 46 195 2
11 21 90 42 175 l39 155 -296 3 -296 2 -17 -22 c-10 -13 -18 -31 -18 -40 0 -9
-7 -44 -16 -77 -8 -34 -17 -69 -19 -78 -2 -10 -20 -85 -40 -168 -20 -82 -38
-157 -40 -165 -2 -8 -40 -166 -85 -350 -109 -446 -111 -455 -112 -532 0 -88
23 -163 69 -225 42 -58 79 -85 154 -116 53 -22 63 -22 519 -22 l465 0 60 25
c151 61 290 176 392 322 24 34 43 58 43 54 0 -4 -18 -81 -40 -172 -45 -187
-46 -196 -24 -219 14 -14 68 -15 528 -12 281 2 520 6 531 9 11 3 43 9 70 12
191 27 380 109 504 222 54 48 133 167 161 241 49 130 66 298 39 381 -35 107
-144 190 -284 216 -85 16 -129 19 -350 21 -132 1 -258 6 -280 10 -152 29 -172
165 -33 236 73 37 122 41 535 41 439 1 405 -3 413 50 1 4 6 22 11 40 12 38 10
33 43 168 22 94 23 107 10 128 -10 16 -25 22 -52 23 -116 1 -894 4 -895 2z"/>
</g>
</svg>
