<svg id="Layer_1" data-name="Layer 1" xmlns="http://www.w3.org/2000/svg" xmlns:xlink="http://www.w3.org/1999/xlink" viewBox="0 0 374.55 110.15">
  <defs>
    <style>
      .cls-1 {
        fill: none;
      }

      .cls-2 {
        clip-path: url(#clip-path);
      }

      .cls-3 {
        fill: #fff;
      }

      .cls-4 {
        fill: #fa002d;
      }
    </style>
    <clipPath id="clip-path" transform="translate(-187.28 212.15)">
      <rect class="cls-1" x="187.28" y="-212.15" width="374.55" height="110.15"/>
    </clipPath>
  </defs>
  <g class="cls-2">
    <path class="cls-3" d="M420.65-129.46H407.56V-109c0,2.62.45,4.47,1.56,5.51a6.78,6.78,0,0,0,4.79,1.46h60.85v-11.46H420.65Z" transform="translate(-187.28 212.15)"/>
    <polygon class="cls-3" points="274.72 88.02 287.49 88.02 287.49 34.29 274.72 34.29 274.72 48.04 263.16 48.04 263.16 59.52 274.72 59.52 274.72 88.02"/>
    <path class="cls-3" d="M436.63-153.73l-.23-.27a19.22,19.22,0,0,1-4-10.43c0-.15-.31-1.81-.33-2h16.83v-11.48H402.09v11.48h16.75c0,.17-.31,1.83-.33,2a19.14,19.14,0,0,1-4,10.43l-.24.27c-2.85,3.53-7.09,5.77-12.57,6.65v12.19c.24,0,.45-.06.69-.09a34.11,34.11,0,0,0,13.06-4.36,25.28,25.28,0,0,0,10-10.06,25.41,25.41,0,0,0,10,10.06A34.16,34.16,0,0,0,448.51-135c.24,0,.46.07.7.09v-12.19c-5.48-.88-9.73-3.12-12.58-6.65" transform="translate(-187.28 212.15)"/>
    <path class="cls-3" d="M507.73-129.46H494.64V-109c0,2.62.44,4.48,1.55,5.51A6.81,6.81,0,0,0,501-102h60.84v-11.46h-54.1Z" transform="translate(-187.28 212.15)"/>
    <polygon class="cls-3" points="361.79 88.02 374.55 88.02 374.55 34.26 361.79 34.26 361.79 43.14 350.23 43.14 350.23 54.61 361.79 54.61 361.79 88.02"/>
    <path class="cls-3" d="M524.39-156.84c-2.75-4.85-3.9-13.71-3.9-18.58v-2.46H507.43c0,.24,0,2.18,0,2.41,0,4.92-1.14,13.77-3.9,18.63-2.93,5.27-8.11,9-15.35,10v11.92a31.47,31.47,0,0,0,12.17-2.92c5.54-2.48,10.62-6.45,13.62-11.77,3,5.32,8.07,9.29,13.61,11.77a31.55,31.55,0,0,0,12.17,2.92v-11.92c-7.24-1-12.43-4.76-15.35-10" transform="translate(-187.28 212.15)"/>
    <path class="cls-3" d="M330.86-141.58c6.43,0,10,.9,10.09,5.2a8.94,8.94,0,0,1-3.3,6.46c-3.93,3-7.38,3.36-25.82,3.36H220.88l17.57-73.37H208.06c-2,0-2.79.58-3.4,3L188-128.17C184.87-114.5,191.92-102,207.67-102h41.72c10.57,0,24.71-11.54,30.45-22.19.32-.59.52-1,.76-1.46,0,0,.12-.14.15.07h0c-.92,3.83-4.11,17.37-4.64,19.57-.67,2.88.83,4,2.21,4h44.89c38.07,0,52.93-18.11,54.23-39.85.73-12.21-7-20.12-28.87-20.12H331.79c-6,0-12.09-2-12.09-6.81s6.64-9.07,15.66-9.07h40.88s3.57-14.31,4.28-17.3c.88-3.77-.25-4.86-3-4.86H327c-29.34,0-42.51,19.63-42.51,33.62s11.29,24.81,40.42,24.81Z" transform="translate(-187.28 212.15)"/>
    <path class="cls-4" d="M350.72-212.15H432l-41.83,21.49,2.19-9.13c.53-2.23-.18-3.91-3.33-4.55l-38.35-7.81" transform="translate(-187.28 212.15)"/>
  </g>
</svg>
