<svg id="Layer_1" data-name="Layer 1" xmlns="http://www.w3.org/2000/svg" xmlns:xlink="http://www.w3.org/1999/xlink" viewBox="0 0 107.23 31.53">
  <defs>
    <style>
      .cls-1 {
        fill: none;
      }

      .cls-2 {
        clip-path: url(#clip-path);
      }

      .cls-3 {
        fill: #7d8282;
      }

      .cls-4 {
        fill: #003876;
      }

      .cls-5 {
        fill: #fa002d;
      }
    </style>
    <clipPath id="clip-path" transform="translate(-125.66 71.62)">
      <rect class="cls-1" x="125.66" y="-71.63" width="107.23" height="31.53"/>
    </clipPath>
  </defs>
  <g class="cls-2">
    <path class="cls-3" d="M192.47-47.95h-3.75v5.86a2.08,2.08,0,0,0,.45,1.57,1.94,1.94,0,0,0,1.37.42H208v-3.28H192.47Z" transform="translate(-125.66 71.62)"/>
    <polygon class="cls-3" points="78.65 25.2 82.3 25.2 82.3 9.82 78.65 9.82 78.65 13.75 75.34 13.75 75.34 17.04 78.65 17.04 78.65 25.2"/>
    <path class="cls-3" d="M197-54.9,197-55a5.49,5.49,0,0,1-1.14-3s-.09-.51-.1-.56h4.82v-3.29H187.15v3.29H192c0,.05-.09.52-.09.56a5.49,5.49,0,0,1-1.14,3l-.07.08a5.58,5.58,0,0,1-3.6,1.9v3.49l.2,0A9.74,9.74,0,0,0,191-50.78a7.33,7.33,0,0,0,2.86-2.88,7.26,7.26,0,0,0,2.86,2.88,9.74,9.74,0,0,0,3.74,1.25l.2,0V-53A5.6,5.6,0,0,1,197-54.9" transform="translate(-125.66 71.62)"/>
    <path class="cls-3" d="M217.4-47.95h-3.75v5.86a2.12,2.12,0,0,0,.44,1.57,2,2,0,0,0,1.38.42h17.42v-3.28H217.4Z" transform="translate(-125.66 71.62)"/>
    <polygon class="cls-3" points="103.57 25.2 107.23 25.2 107.23 9.81 103.57 9.81 103.57 12.35 100.26 12.35 100.26 15.63 103.57 15.63 103.57 25.2"/>
    <path class="cls-3" d="M222.17-55.79a12.88,12.88,0,0,1-1.12-5.32v-.71h-3.74v.7a12.9,12.9,0,0,1-1.12,5.33,5.72,5.72,0,0,1-4.39,2.87v3.41a8.93,8.93,0,0,0,3.48-.83,8.33,8.33,0,0,0,3.9-3.37,8.33,8.33,0,0,0,3.9,3.37,8.93,8.93,0,0,0,3.48.83v-3.41a5.7,5.7,0,0,1-4.39-2.87" transform="translate(-125.66 71.62)"/>
    <path class="cls-4" d="M166.76-51.42c1.84,0,2.87.26,2.89,1.49a2.58,2.58,0,0,1-.94,1.85c-1.13.86-2.12,1-7.39,1h-26l5-21h-8.7c-.58,0-.8.17-1,.86l-4.77,19.69c-.9,3.91,1.12,7.49,5.63,7.49h11.94c3,0,7.08-3.3,8.72-6.35.09-.17.15-.28.21-.42s0,0,0,0h0l-1.33,5.61c-.19.82.24,1.13.64,1.13h12.85c10.89,0,15.15-5.18,15.52-11.41.21-3.49-2-5.76-8.26-5.76H167c-1.71,0-3.46-.56-3.46-1.95s1.9-2.59,4.48-2.59h11.7s1-4.1,1.23-5c.25-1.07-.07-1.39-.86-1.39H165.66c-8.4,0-12.18,5.62-12.18,9.63s3.24,7.1,11.58,7.1Z" transform="translate(-125.66 71.62)"/>
    <path class="cls-5" d="M172.45-71.62h23.28l-12,6.15s.49-2,.63-2.62,0-1.12-.95-1.3l-11-2.23" transform="translate(-125.66 71.62)"/>
  </g>
</svg>
