<svg id="Layer_1" data-name="Layer 1" xmlns="http://www.w3.org/2000/svg" width="100.53mm" height="21mm" viewBox="0 0 284.97 59.53">
  <defs>
    <style>
      .cls-1 {
        fill: #967453;
      }

      .cls-2 {
        fill: #ff8428;
      }

      .cls-3 {
        fill: #5c3100;
      }

      .cls-4 {
        fill: #003876;
      }
    </style>
  </defs>
  <g>
    <path class="cls-1" d="M718.27,895.3c.66-5.39,2.75-8.5,4.39-10.16a11,11,0,0,1,2.38-1.81.17.17,0,0,0,0-.29c-3.81-1.65-9.24,1.14-12.78,6.85s-4,12.64-1.17,16a.09.09,0,0,0,.12,0C712.2,905.6,717.28,903.3,718.27,895.3Z" transform="translate(-459.67 -868.13)"/>
    <g>
      <g>
        <path class="cls-1" d="M728.83,898.74a17,17,0,0,0,2.78-1.9c3.92-3.31,7.37-4.12,9.58-4.22a10.67,10.67,0,0,1,2.81.28c.11,0,.24-.09.2-.19-1.58-3.59-7.13-5.15-13.26-3.48l-.34.11A19.07,19.07,0,0,1,728.83,898.74Z" transform="translate(-459.67 -868.13)"/>
        <path class="cls-1" d="M744.58,895c-.84-.33-5.86-2-11.74,3a18.92,18.92,0,0,1-5.29,3.25c-.06.11-.11.23-.18.34a21.24,21.24,0,0,1-3.16,3.94,15.46,15.46,0,0,0,9.3.07c6.29-1.71,11-6.24,11.13-10.46A.1.1,0,0,0,744.58,895Z" transform="translate(-459.67 -868.13)"/>
      </g>
      <path class="cls-1" d="M727.1,884.55a.1.1,0,0,0-.12,0c-.9.34-6,2.67-7,10.74-.66,5.39-2.75,8.5-4.39,10.16a10.24,10.24,0,0,1-2.43,1.78c-.11.06-.13.25,0,.3,3.81,1.69,9.27-1.1,12.83-6.83S730,887.92,727.1,884.55Z" transform="translate(-459.67 -868.13)"/>
    </g>
  </g>
  <circle class="cls-2" cx="236.83" cy="48.24" r="6.67"/>
  <path class="cls-3" d="M459.67,897.7h2l19.95,25.15V897.7h2.06v28.91H482.1l-20.36-25.69v25.69h-2.07Z" transform="translate(-459.67 -868.13)"/>
  <path class="cls-3" d="M487.61,914.75v-.09c0-6.92,4.85-12.43,11.3-12.43,6.68,0,10.93,5.42,10.93,12.47a5.68,5.68,0,0,1,0,.94H490c.42,5.93,4.67,9.39,9.34,9.39a10.7,10.7,0,0,0,8.17-3.74l1.59,1.4a12.51,12.51,0,0,1-9.86,4.48C493,927.17,487.61,922.18,487.61,914.75Zm19.75-1.17c-.32-4.81-3.08-9.24-8.54-9.24-4.72,0-8.36,4-8.78,9.24Z" transform="translate(-459.67 -868.13)"/>
  <path class="cls-3" d="M509.84,902.79h2.57l7.19,20.93,7.19-21h1.83l7.19,21L543,902.79h2.48l-8.74,24h-2l-7.1-20.41-7.14,20.41h-2Z" transform="translate(-459.67 -868.13)"/>
  <path class="cls-3" d="M545.67,923.62,547,921.8a14,14,0,0,0,8.55,3.13c3.22,0,5.75-1.77,5.75-4.53v-.09c0-2.8-3-3.83-6.31-4.77-3.88-1.12-8.17-2.28-8.17-6.53v-.1c0-3.83,3.22-6.58,7.84-6.58a16.1,16.1,0,0,1,8.46,2.61l-1.22,1.92a13.64,13.64,0,0,0-7.33-2.38c-3.27,0-5.42,1.77-5.42,4.15v.1c0,2.66,3.23,3.64,6.63,4.62,3.84,1.07,7.85,2.48,7.85,6.68v.09c0,4.25-3.64,7-8.22,7A16.27,16.27,0,0,1,545.67,923.62Z" transform="translate(-459.67 -868.13)"/>
  <path class="cls-3" d="M571.65,897.69h11.82a13.71,13.71,0,0,1,4.65.73,9.87,9.87,0,0,1,3.47,2,9,9,0,0,1,2.19,3.16,10.5,10.5,0,0,1,.76,4.07v.08a10.06,10.06,0,0,1-.91,4.42,9,9,0,0,1-2.5,3.19,11,11,0,0,1-3.71,1.92,15.68,15.68,0,0,1-4.57.64H578v8.67h-6.37Zm11.41,14.59a5.16,5.16,0,0,0,3.71-1.26,4.11,4.11,0,0,0,1.33-3.12v-.08a3.93,3.93,0,0,0-1.39-3.27,5.87,5.87,0,0,0-3.78-1.11H578v8.84Z" transform="translate(-459.67 -868.13)"/>
  <path class="cls-3" d="M597.2,902.08H604v5.31a10.06,10.06,0,0,1,2.83-3.95,6.89,6.89,0,0,1,4.85-1.35v7.14h-.36A7,7,0,0,0,606,911.3q-2,2.07-2,6.42v8.89H597.2Z" transform="translate(-459.67 -868.13)"/>
  <path class="cls-3" d="M626.6,927.17a14.31,14.31,0,0,1-5.21-.93,12,12,0,0,1-4.16-2.66,12.23,12.23,0,0,1-2.73-4.09,13.6,13.6,0,0,1-1-5.25v-.1a14,14,0,0,1,.91-5,13.1,13.1,0,0,1,2.54-4.16,11.9,11.9,0,0,1,8.93-3.83,12.26,12.26,0,0,1,5.41,1.12,11,11,0,0,1,3.81,3,12.53,12.53,0,0,1,2.24,4.34,18,18,0,0,1,.72,5.11c0,.29,0,.58,0,.89s0,.64-.07,1H620.57a6,6,0,0,0,2.13,3.67,6.37,6.37,0,0,0,4,1.24,8,8,0,0,0,3.18-.61,10.87,10.87,0,0,0,2.89-2l4.07,3.59a12.69,12.69,0,0,1-4.3,3.44A13.39,13.39,0,0,1,626.6,927.17Zm4.57-15a6.89,6.89,0,0,0-1.68-3.86,4.64,4.64,0,0,0-3.59-1.47,4.73,4.73,0,0,0-3.62,1.45,7.24,7.24,0,0,0-1.8,3.88Z" transform="translate(-459.67 -868.13)"/>
  <path class="cls-3" d="M649.44,927.08a17.29,17.29,0,0,1-5.44-.91,17.51,17.51,0,0,1-5.3-2.87l3-4.67a16.77,16.77,0,0,0,4.09,2.24,11,11,0,0,0,3.81.75,3.89,3.89,0,0,0,2.26-.52,1.58,1.58,0,0,0,.72-1.35v-.09a1.4,1.4,0,0,0-.41-1,3.66,3.66,0,0,0-1.15-.72,15.81,15.81,0,0,0-1.66-.58l-2-.61a26.68,26.68,0,0,1-2.64-.91,9.51,9.51,0,0,1-2.4-1.4,7,7,0,0,1-1.76-2.13,6.46,6.46,0,0,1-.67-3.08v-.09a7.35,7.35,0,0,1,2.68-5.89,8.4,8.4,0,0,1,2.9-1.54,12,12,0,0,1,3.57-.51A15.92,15.92,0,0,1,654,902a17.88,17.88,0,0,1,4.5,2.12L655.74,909a21.93,21.93,0,0,0-3.64-1.71,9.53,9.53,0,0,0-3.13-.63,3.31,3.31,0,0,0-2,.49,1.48,1.48,0,0,0-.65,1.24v.09a1.22,1.22,0,0,0,.42.91,4.36,4.36,0,0,0,1.12.75,15,15,0,0,0,1.61.68c.61.22,1.25.43,1.94.65.87.28,1.76.62,2.66,1a10.77,10.77,0,0,1,2.43,1.42,7,7,0,0,1,1.77,2.06,5.74,5.74,0,0,1,.7,2.94V919a8.38,8.38,0,0,1-.72,3.62,6.63,6.63,0,0,1-2,2.5,9.25,9.25,0,0,1-3.06,1.47A13.78,13.78,0,0,1,649.44,927.08Z" transform="translate(-459.67 -868.13)"/>
  <path class="cls-3" d="M670.55,927.08a17.29,17.29,0,0,1-5.44-.91,17.51,17.51,0,0,1-5.3-2.87l3-4.67a16.77,16.77,0,0,0,4.09,2.24,11,11,0,0,0,3.81.75,3.89,3.89,0,0,0,2.26-.52,1.58,1.58,0,0,0,.72-1.35v-.09a1.4,1.4,0,0,0-.41-1,3.66,3.66,0,0,0-1.15-.72,15,15,0,0,0-1.66-.58l-2-.61a26.68,26.68,0,0,1-2.64-.91,9.68,9.68,0,0,1-2.4-1.4,6.85,6.85,0,0,1-1.75-2.13,6.35,6.35,0,0,1-.68-3.08v-.09a7.61,7.61,0,0,1,.72-3.39,7.75,7.75,0,0,1,2-2.5,8.4,8.4,0,0,1,2.9-1.54,12,12,0,0,1,3.57-.51,15.92,15.92,0,0,1,4.84.77,17.88,17.88,0,0,1,4.5,2.12L676.85,909a21.57,21.57,0,0,0-3.64-1.71,9.53,9.53,0,0,0-3.13-.63,3.31,3.31,0,0,0-2,.49,1.51,1.51,0,0,0-.65,1.24v.09a1.22,1.22,0,0,0,.42.91,4.36,4.36,0,0,0,1.12.75,15,15,0,0,0,1.61.68c.61.22,1.25.43,1.94.65.87.28,1.76.62,2.66,1a10.77,10.77,0,0,1,2.43,1.42,7,7,0,0,1,1.77,2.06,5.74,5.74,0,0,1,.7,2.94V919a8.38,8.38,0,0,1-.72,3.62,6.63,6.63,0,0,1-2,2.5,9.25,9.25,0,0,1-3.06,1.47A13.78,13.78,0,0,1,670.55,927.08Z" transform="translate(-459.67 -868.13)"/>
  <path class="cls-3" d="M708,914.14a13.52,13.52,0,1,1-13.52-13.51A13.52,13.52,0,0,1,708,914.14Zm-13.52-7a7,7,0,1,0,7,7A7,7,0,0,0,694.47,907.14Z" transform="translate(-459.67 -868.13)"/>
  <g>
    <path class="cls-4" d="M569.93,882.92q-1-.07-1.95-.09h-2.85v4.73c0,.36,0,.75,0,1.16s0,.84.09,1.25h-3.81c.05-.41.08-.84.09-1.27s0-.84,0-1.22v-4.65h-4.29v4.6c0,.38,0,.77,0,1.18s0,.82.09,1.23h-3.81q.08-.62.09-1.26c0-.44,0-.84,0-1.22v-4.53h-3c-.64,0-1.28,0-1.94.09v-3.3c.66,0,1.3.08,1.94.09H568q1,0,1.95-.09Zm-2.14-5.39-1.53-.06h-15.2V870.7c0-.3,0-.67,0-1.11a5.53,5.53,0,0,0-.12-1.11h4a5.61,5.61,0,0,0-.11,1.11c0,.44,0,.81,0,1.11v3.64h10l1.54,0q.72,0,1.53-.06Z" transform="translate(-459.67 -868.13)"/>
    <path class="cls-4" d="M592.63,887.79c-.66,0-1.31-.08-1.94-.09H573.34c-.63,0-1.28,0-1.94.09V884.4c.66.05,1.31.07,1.94.08l1.95,0h13.46l1.94,0c.63,0,1.28,0,1.94-.08Zm-8.53-19.26a7.58,7.58,0,0,0-.09,1c0,.35,0,.68,0,1a6.14,6.14,0,0,0,.64,2.76,8.83,8.83,0,0,0,1.74,2.37,10.44,10.44,0,0,0,2.53,1.83,12.51,12.51,0,0,0,3,1.14,15,15,0,0,0-1.16,1.3c-.38.47-.73.94-1,1.4a12.07,12.07,0,0,1-2.4-.91,16,16,0,0,1-2.23-1.33,12,12,0,0,1-1.85-1.6,7.55,7.55,0,0,1-1.27-1.74,7.85,7.85,0,0,1-1.27,1.76,12.7,12.7,0,0,1-1.85,1.62,17.11,17.11,0,0,1-2.21,1.34,12.55,12.55,0,0,1-2.34.91c-.34-.46-.72-.93-1.14-1.4s-.83-.91-1.22-1.3a13.72,13.72,0,0,0,3.12-1.19,10.54,10.54,0,0,0,2.54-1.82,8.22,8.22,0,0,0,1.72-2.34,6.48,6.48,0,0,0,.62-2.8c0-.32,0-.66,0-1s0-.67-.07-1Z" transform="translate(-459.67 -868.13)"/>
    <path class="cls-4" d="M613.24,889.68h-17v-4.84c0-.33,0-.68,0-1.05s-.07-.71-.12-1h6.63v-1.33h-6.64q-1,0-1.95.09v-3c.66.05,1.31.08,1.95.08l1.94,0H611.5l1.94,0c.64,0,1.28,0,1.94-.08v3c-.66,0-1.3-.08-1.94-.09h-6.77v1.33h6.67c-.05.38-.08.72-.09,1s0,.67,0,1.05Zm-.14-11.92c-.42,0-.81-.08-1.16-.09H596.62V871.8H609v-1H598.83l-1.11,0c-.38,0-.75,0-1.1.08v-2.78a9.25,9.25,0,0,0,1.14.08l1.07,0H613a7.39,7.39,0,0,0-.1.92c0,.3,0,.61,0,.92v4.06H600.3v1h11.64l1.16-.06Zm-3.49,9.17v-1.55h-9.79v1.55Z" transform="translate(-459.67 -868.13)"/>
  </g>
  <g>
    <path class="cls-4" d="M459.67,868.61h4.43v16.77h9.41v3.44H459.67Z" transform="translate(-459.67 -868.13)"/>
    <path class="cls-4" d="M479.05,882.35c0,.95-.06,3.84,3.67,3.84,2.35,0,3.83-1.12,3.83-2.83s-1.26-2.1-3.83-2.72c-4.82-1.2-7.45-2.63-7.45-6.13,0-3.33,2.38-6.27,8-6.27,2.1,0,4.59.48,6.1,2.38a5.83,5.83,0,0,1,1.15,3.75h-4.17a3,3,0,0,0-3.28-3.08c-2,0-3.33,1.1-3.33,2.75,0,1.87,1.48,2.21,4.4,2.94,3.49.84,6.94,1.79,6.94,5.74,0,3.64-3,6.57-8.62,6.57-7.76,0-7.81-5-7.84-6.94Z" transform="translate(-459.67 -868.13)"/>
  </g>
  <path class="cls-4" d="M534.93,870.63v-2.5h3.55v14.79h-3.55V873.8h-4v-3.17Zm-15.24,11.14h3.55v4.67h15.43v3.17H521.43a1.86,1.86,0,0,1-1.29-.38,2.11,2.11,0,0,1-.45-1.52v-5.94m6.78-13.63a12,12,0,0,0,1.06,5.71,5.26,5.26,0,0,0,4.17,2.58v3.38a9.3,9.3,0,0,1-4.17-1.21,7.12,7.12,0,0,1-2.85-2.8,7.45,7.45,0,0,1-3.06,2.85,9.1,9.1,0,0,1-4,1.16v-3.35a5.21,5.21,0,0,0,4.15-2.61,12.61,12.61,0,0,0,1-5.71h3.74" transform="translate(-459.67 -868.13)"/>
  <path class="cls-4" d="M511,872.1v-4h3.54V883H511v-7.68h-3.14V872.1Zm-15.24,9.68h3.55v4.67h15.43v3.17H497.52a1.8,1.8,0,0,1-1.28-.38,2.11,2.11,0,0,1-.45-1.52v-5.94m11.51-13.64v3.17h-4.54a6.21,6.21,0,0,0,1.21,3.34,5.19,5.19,0,0,0,3.43,1.81v3.39a8.52,8.52,0,0,1-3.78-1.19,7,7,0,0,1-2.71-2.78,7.55,7.55,0,0,1-2.9,2.81,8.69,8.69,0,0,1-3.61,1.14v-3.37a5.09,5.09,0,0,0,3.38-1.81,6.83,6.83,0,0,0,1.16-3.34H494.5v-3.17h12.8" transform="translate(-459.67 -868.13)"/>
</svg>
